<?xml version="1.0" ?><svg height="64" viewBox="0 0 64 64" width="64" xmlns="http://www.w3.org/2000/svg"><title/><g><g><path d="M24.459,37.784l-3.878,1.153a8,8,0,0,0-5.651,6.622L13.293,57.965H25.806a19.668,19.668,0,0,1-3.594-11.212A19.245,19.245,0,0,1,24.459,37.784Z" fill="#f25a3d"/><path d="M50.707,57.965,49.07,45.559a8,8,0,0,0-5.651-6.622L32,35.541l-7.541,2.243a19.245,19.245,0,0,0-2.247,8.969,19.668,19.668,0,0,0,3.594,11.212h24.9Z" fill="#ff714f"/></g><path d="M43.419,38.937,32,35.541l-11.419,3.4a8,8,0,0,0-5.651,6.622L13.293,57.965H50.707L49.07,45.559A8,8,0,0,0,43.419,38.937Z" fill="none" stroke="#231f20" stroke-linecap="round" stroke-linejoin="round" stroke-width="2"/><g><path d="M30.829,35.724V31.358H28v4.366a3.975,3.975,0,0,0,5.415,3.73A3.99,3.99,0,0,1,30.829,35.724Z" fill="#e5c7b7"/><path d="M36,35.724V31.358H30.829v4.366a3.99,3.99,0,0,0,2.586,3.73A3.99,3.99,0,0,0,36,35.724Z" fill="#f9dbc8"/></g><path d="M28,31.358h8a0,0,0,0,1,0,0v4.366a4,4,0,0,1-4,4h0a4,4,0,0,1-4-4V31.358a0,0,0,0,1,0,0Z" fill="none" stroke="#231f20" stroke-linecap="round" stroke-linejoin="round" stroke-width="2"/><line fill="none" stroke="#231f20" stroke-linecap="round" stroke-linejoin="round" stroke-width="2" x1="32" x2="32" y1="39.724" y2="57.965"/><g><line fill="none" stroke="#231f20" stroke-linecap="round" stroke-linejoin="round" stroke-width="2" x1="19.717" x2="19.717" y1="51.14" y2="57.965"/><line fill="none" stroke="#231f20" stroke-linecap="round" stroke-linejoin="round" stroke-width="2" x1="44.283" x2="44.283" y1="51.14" y2="57.965"/></g><g><g><path d="M27.111,22.445v-8a6.419,6.419,0,0,1,1.8-4.7c-3.386.778-5.8,2.952-5.8,6.775v8a8.878,8.878,0,0,0,14.836,6.593,8.868,8.868,0,0,1-10.836-8.668Z" fill="#e5c7b7"/><path d="M40.889,24.52v-8c0-4.909-3.98-7.111-8.889-7.111a13.812,13.812,0,0,0-3.085.336,6.419,6.419,0,0,0-1.8,4.7v8a8.868,8.868,0,0,0,10.836,8.668A8.856,8.856,0,0,0,40.889,24.52Z" fill="#f9dbc8"/></g><path d="M32,33.409h0a8.889,8.889,0,0,1-8.889-8.889v-8c0-4.909,3.98-7.111,8.889-7.111h0c4.909,0,8.889,2.2,8.889,7.111v8A8.889,8.889,0,0,1,32,33.409Z" fill="none" stroke="#231f20" stroke-linecap="round" stroke-linejoin="round" stroke-width="2"/><g><g><path d="M34.87,6.808A10.446,10.446,0,0,0,32,6.4C26.268,6.4,21.62,10.9,21.62,17.6h5.741C27.361,12.062,30.536,8.042,34.87,6.808Z" fill="#dad9dd"/><path d="M34.87,6.808c-4.334,1.234-7.509,5.254-7.509,10.788H42.38C42.38,12.062,39.205,8.042,34.87,6.808Z" fill="#ededed"/></g><path d="M21.62,17.6C21.62,10.9,26.268,6.4,32,6.4S42.38,10.9,42.38,17.6Z" fill="none" stroke="#231f20" stroke-linecap="round" stroke-linejoin="round" stroke-width="2"/></g><g><path d="M32,31.221c-3.946,0-7.338-4.394-8.889-8.03V24.52c0,4.909,2.794,12.225,8.889,12.225A7.464,7.464,0,0,0,37.973,33.4,8.874,8.874,0,0,1,32.3,31.2C32.2,31.206,32.1,31.221,32,31.221Z" fill="#845949"/><path d="M40.889,23.191c-1.511,3.543-4.772,7.793-8.588,8.009a8.874,8.874,0,0,0,5.672,2.2,15.783,15.783,0,0,0,2.916-8.876Z" fill="#93675a"/></g><path d="M32,31.221c-3.946,0-7.338-4.394-8.889-8.03V24.52c0,4.909,2.794,12.225,8.889,12.225,5.751,0,8.889-7.316,8.889-12.225V23.191C39.338,26.827,35.946,31.221,32,31.221Z" fill="none" stroke="#231f20" stroke-linecap="round" stroke-linejoin="round" stroke-width="2"/></g><path d="M30.481,27.6a3.1,3.1,0,0,0,3.12,0" fill="none" stroke="#231f20" stroke-linecap="round" stroke-linejoin="round" stroke-width="2"/><line fill="none" stroke="#231f20" stroke-linecap="round" stroke-linejoin="round" stroke-width="2" x1="35.317" x2="40.889" y1="49.755" y2="49.755"/></g></svg>