<?xml version="1.0" ?><svg height="64" viewBox="0 0 64 64" width="64" xmlns="http://www.w3.org/2000/svg"><title/><g><g><polygon fill="#58595b" points="30.908 55.832 12.249 52.278 12.249 25.622 30.908 20.291 30.908 55.832"/><polygon fill="#292a2b" points="30.908 55.832 49.567 52.278 49.567 25.622 30.908 20.291 30.908 55.832"/><polygon fill="#88898e" points="12.249 45.169 30.908 47.835 30.908 20.291 12.249 25.622 12.249 45.169"/><polygon fill="#626366" points="30.908 47.835 49.567 45.169 49.567 25.622 30.908 20.291 30.908 47.835"/><polygon fill="none" points="12.249 45.169 30.908 47.835 30.908 20.291 12.249 25.622 12.249 45.169" stroke="#231f20" stroke-linecap="round" stroke-linejoin="round" stroke-width="2"/><polygon fill="none" points="30.908 47.835 49.567 45.169 49.567 25.622 30.908 20.291 30.908 47.835" stroke="#231f20" stroke-linecap="round" stroke-linejoin="round" stroke-width="2"/><polygon fill="none" points="30.908 55.832 12.249 52.278 12.249 25.622 30.908 20.291 30.908 55.832" stroke="#231f20" stroke-linecap="round" stroke-linejoin="round" stroke-width="2"/><polygon fill="none" points="30.908 55.832 49.567 52.278 49.567 25.622 30.908 20.291 30.908 55.832" stroke="#231f20" stroke-linecap="round" stroke-linejoin="round" stroke-width="2"/><polygon fill="#bfcbd6" points="30.908 30.953 49.567 36.284 49.567 31.841 30.908 26.51 30.908 30.953"/><polygon fill="none" points="30.908 30.953 49.567 36.284 49.567 31.841 30.908 26.51 30.908 30.953" stroke="#231f20" stroke-linecap="round" stroke-linejoin="round" stroke-width="2"/><polygon fill="#e8e9ea" points="30.908 30.953 12.249 36.284 12.249 31.841 30.908 26.51 30.908 30.953"/><polygon fill="none" points="30.908 30.953 12.249 36.284 12.249 31.841 30.908 26.51 30.908 30.953" stroke="#231f20" stroke-linecap="round" stroke-linejoin="round" stroke-width="2"/></g><path d="M45.437,13.129a5.506,5.506,0,0,1,.637-4.961,5.6,5.6,0,0,0-.742.2,5.518,5.518,0,1,0,6.419,8.3A5.516,5.516,0,0,1,45.437,13.129Z" fill="#ffef5c"/><path d="M45.437,13.129a5.506,5.506,0,0,1,.637-4.961,5.6,5.6,0,0,0-.742.2,5.518,5.518,0,1,0,6.419,8.3A5.516,5.516,0,0,1,45.437,13.129Z" fill="none" stroke="#231f20" stroke-linecap="round" stroke-linejoin="round" stroke-width="2"/></g></svg>