<?xml version="1.0" ?><svg viewBox="0 0 20.718 22.367" xmlns="http://www.w3.org/2000/svg"><g data-name="Layer 2" id="Layer_2"><g data-name="Layer 1" id="Layer_1-2"><path d="M18.39,15.029c.228,3.125.583,4.57-3.531,4.591a.724.724,0,0,0-.818.768v1.649a.34.34,0,0,1-.68,0V20.388a1.381,1.381,0,0,1,1.5-1.448c1.615,0,2.765-.342,2.862-.851a13.281,13.281,0,0,0-.035-3.233A.338.338,0,0,1,17.9,14.5a15.431,15.431,0,0,0,1.833-.871c.529-.326.257-.633.011-1a8.167,8.167,0,0,1-2.006-3.465c-.468-11.307-16.58-11.3-17.047,0-.179,3,2.125,5.563,3.343,8.01a15.945,15.945,0,0,1,.752,4.867.34.34,0,0,1-.68.007,15.654,15.654,0,0,0-.691-4.594c-1.3-2.509-3.594-5.192-3.4-8.29.5-12.185,17.852-12.217,18.406-.042a8.7,8.7,0,0,0,1.846,3.069C21.644,13.86,19.55,14.509,18.39,15.029Zm-5.543-.814a.342.342,0,0,1-.4,0L10.967,13.14q-.089.039-.174.072l-.288,1.808c-.16.485-.885.3-1.291.365-.412-.067-1.13.122-1.29-.364l-.288-1.806-.176-.073L5.98,14.216a.341.341,0,0,1-.4,0,6.287,6.287,0,0,1-1.428-1.429.339.339,0,0,1,0-.4l1.074-1.481c-.025-.057-.05-.116-.072-.174l-1.806-.287c-.486-.16-.3-.885-.366-1.291.067-.406-.12-1.132.366-1.291l1.806-.288c.022-.058.047-.116.072-.174L4.155,5.925a.338.338,0,0,1,0-.4A6.236,6.236,0,0,1,5.582,4.1a.341.341,0,0,1,.4,0L7.462,5.172c.058-.026.116-.05.174-.073l.288-1.807A.34.34,0,0,1,8.2,3.01a6.258,6.258,0,0,1,2.021,0,.34.34,0,0,1,.28.282L10.793,5.1c.059.023.118.048.175.073L12.448,4.1a.339.339,0,0,1,.4,0,6.263,6.263,0,0,1,1.427,1.429.339.339,0,0,1,0,.4L13.2,7.4c.026.057.05.115.073.174l1.8.287c.486.159.3.887.366,1.291-.066.4.12,1.132-.366,1.291l-1.8.287c-.023.059-.047.117-.073.175l1.074,1.479a.339.339,0,0,1,0,.4A6.256,6.256,0,0,1,12.847,14.215Zm.729-1.632-1.045-1.439a.339.339,0,0,1-.029-.352c.16-.238.138-.637.465-.7l1.756-.28a5.382,5.382,0,0,0,0-1.318l-1.756-.28a.34.34,0,0,1-.27-.229c-.05-.266-.356-.551-.166-.82l1.045-1.441a5.559,5.559,0,0,0-.932-.933L11.2,5.839c-.278.188-.537-.111-.823-.169a.339.339,0,0,1-.228-.268l-.28-1.757a5.587,5.587,0,0,0-1.318,0L8.275,5.4a.34.34,0,0,1-.229.269c-.252.047-.556.356-.821.167L5.784,4.8a5.528,5.528,0,0,0-.932.934L5.9,7.168a.337.337,0,0,1,.028.352c-.159.236-.138.637-.464.7L3.705,8.5a5.491,5.491,0,0,0,0,1.319l1.757.279a.338.338,0,0,1,.269.23c.051.268.356.55.167.82L4.852,12.586a5.6,5.6,0,0,0,.932.933l1.441-1.046c.277-.188.537.11.823.168a.339.339,0,0,1,.227.269l.28,1.756a5.587,5.587,0,0,0,1.318,0l.28-1.758a.339.339,0,0,1,.229-.268c.252-.047.556-.356.822-.167l1.44,1.045A5.565,5.565,0,0,0,13.576,12.583ZM9.214,11.308a2.152,2.152,0,0,1,0-4.3A2.152,2.152,0,0,1,9.214,11.308Zm0-3.624a1.472,1.472,0,0,0,0,2.944A1.472,1.472,0,0,0,9.214,7.684ZM5.8,17.072c-.317.3.173.8.48.48S6.112,16.765,5.8,17.072Zm3.411-.1a.34.34,0,0,0,0,.679A.34.34,0,0,0,9.215,16.973Zm2.93.1c-.316.306.174.8.481.48S12.454,16.765,12.145,17.072Z" id="development"/></g></g></svg>